<mxfile host="app.diagrams.net" modified="2021-07-16T02:57:00.102Z" agent="5.0 (Macintosh; Intel Mac OS X 10_15_7) AppleWebKit/537.36 (KHTML, like Gecko) Chrome/91.0.4472.114 Safari/537.36" etag="b9raqFVHBHnE5TPJtMmU" version="14.8.6" type="github">
  <diagram id="Ok5dT5ddBMlqm3oUDsgo" name="Page-1">
    <mxGraphModel dx="2219" dy="1071" grid="1" gridSize="10" guides="1" tooltips="1" connect="1" arrows="1" fold="1" page="1" pageScale="1" pageWidth="827" pageHeight="1169" math="0" shadow="0">
      <root>
        <mxCell id="0" />
        <mxCell id="1" parent="0" />
        <mxCell id="Ixk-3HSl-CnPWXnMhM3V-1" value="数据清洗流程" style="rounded=1;whiteSpace=wrap;html=1;" vertex="1" parent="1">
          <mxGeometry x="280" y="60" width="120" height="60" as="geometry" />
        </mxCell>
        <mxCell id="Ixk-3HSl-CnPWXnMhM3V-2" value="" style="html=1;shadow=0;dashed=0;align=center;verticalAlign=middle;shape=mxgraph.arrows2.arrow;dy=0.6;dx=40;direction=south;notch=0;" vertex="1" parent="1">
          <mxGeometry x="305" y="130" width="70" height="70" as="geometry" />
        </mxCell>
        <mxCell id="Ixk-3HSl-CnPWXnMhM3V-3" value="选择子集" style="rounded=1;whiteSpace=wrap;html=1;" vertex="1" parent="1">
          <mxGeometry x="280" y="210" width="120" height="60" as="geometry" />
        </mxCell>
        <mxCell id="Ixk-3HSl-CnPWXnMhM3V-4" value="对不需要的数据选择隐藏" style="shape=callout;whiteSpace=wrap;html=1;perimeter=calloutPerimeter;size=20;position=0.33;position2=0;" vertex="1" parent="1">
          <mxGeometry x="414" y="150" width="120" height="80" as="geometry" />
        </mxCell>
        <mxCell id="Ixk-3HSl-CnPWXnMhM3V-6" value="" style="html=1;shadow=0;dashed=0;align=center;verticalAlign=middle;shape=mxgraph.arrows2.arrow;dy=0.6;dx=40;direction=south;notch=0;" vertex="1" parent="1">
          <mxGeometry x="305" y="290" width="70" height="70" as="geometry" />
        </mxCell>
        <mxCell id="Ixk-3HSl-CnPWXnMhM3V-7" value="列名重命名" style="rounded=1;whiteSpace=wrap;html=1;" vertex="1" parent="1">
          <mxGeometry x="280" y="370" width="120" height="60" as="geometry" />
        </mxCell>
        <mxCell id="Ixk-3HSl-CnPWXnMhM3V-8" value="" style="html=1;shadow=0;dashed=0;align=center;verticalAlign=middle;shape=mxgraph.arrows2.arrow;dy=0.6;dx=40;direction=south;notch=0;" vertex="1" parent="1">
          <mxGeometry x="305" y="445" width="70" height="70" as="geometry" />
        </mxCell>
        <mxCell id="Ixk-3HSl-CnPWXnMhM3V-9" value="删除重复值" style="rounded=1;whiteSpace=wrap;html=1;" vertex="1" parent="1">
          <mxGeometry x="280" y="525" width="120" height="60" as="geometry" />
        </mxCell>
        <mxCell id="Ixk-3HSl-CnPWXnMhM3V-10" value="" style="html=1;shadow=0;dashed=0;align=center;verticalAlign=middle;shape=mxgraph.arrows2.arrow;dy=0.6;dx=40;direction=south;notch=0;" vertex="1" parent="1">
          <mxGeometry x="305" y="600" width="70" height="70" as="geometry" />
        </mxCell>
        <mxCell id="Ixk-3HSl-CnPWXnMhM3V-11" value="缺失值处理" style="rounded=1;whiteSpace=wrap;html=1;" vertex="1" parent="1">
          <mxGeometry x="280" y="680" width="120" height="60" as="geometry" />
        </mxCell>
        <mxCell id="Ixk-3HSl-CnPWXnMhM3V-12" value="1.人工补全缺失值&lt;br&gt;2.删除缺失值&lt;br&gt;3.平均值代替缺失值&lt;br&gt;4.默认值代替缺失值&lt;br&gt;" style="shape=callout;whiteSpace=wrap;html=1;perimeter=calloutPerimeter;size=20;position=0.33;position2=0;align=left;" vertex="1" parent="1">
          <mxGeometry x="414" y="590" width="136" height="100" as="geometry" />
        </mxCell>
        <mxCell id="Ixk-3HSl-CnPWXnMhM3V-14" value="" style="html=1;shadow=0;dashed=0;align=center;verticalAlign=middle;shape=mxgraph.arrows2.arrow;dy=0.6;dx=40;direction=south;notch=0;" vertex="1" parent="1">
          <mxGeometry x="305" y="760" width="70" height="70" as="geometry" />
        </mxCell>
        <mxCell id="Ixk-3HSl-CnPWXnMhM3V-15" value="一致化处理" style="rounded=1;whiteSpace=wrap;html=1;" vertex="1" parent="1">
          <mxGeometry x="280" y="840" width="120" height="60" as="geometry" />
        </mxCell>
        <mxCell id="Ixk-3HSl-CnPWXnMhM3V-16" value="" style="html=1;shadow=0;dashed=0;align=center;verticalAlign=middle;shape=mxgraph.arrows2.arrow;dy=0.6;dx=40;direction=south;notch=0;" vertex="1" parent="1">
          <mxGeometry x="305" y="920" width="70" height="70" as="geometry" />
        </mxCell>
        <mxCell id="Ixk-3HSl-CnPWXnMhM3V-17" value="数据排序" style="rounded=1;whiteSpace=wrap;html=1;" vertex="1" parent="1">
          <mxGeometry x="280" y="1000" width="120" height="60" as="geometry" />
        </mxCell>
        <mxCell id="Ixk-3HSl-CnPWXnMhM3V-18" value="" style="html=1;shadow=0;dashed=0;align=center;verticalAlign=middle;shape=mxgraph.arrows2.arrow;dy=0.6;dx=40;direction=south;notch=0;" vertex="1" parent="1">
          <mxGeometry x="305" y="1080" width="70" height="70" as="geometry" />
        </mxCell>
        <mxCell id="Ixk-3HSl-CnPWXnMhM3V-19" value="数据异常值处理" style="rounded=1;whiteSpace=wrap;html=1;" vertex="1" parent="1">
          <mxGeometry x="280" y="1160" width="120" height="60" as="geometry" />
        </mxCell>
        <mxCell id="Ixk-3HSl-CnPWXnMhM3V-20" value="数据是否统一的标准或者命名" style="shape=callout;whiteSpace=wrap;html=1;perimeter=calloutPerimeter;size=20;position=0.33;position2=0;align=left;" vertex="1" parent="1">
          <mxGeometry x="424" y="800" width="106" height="60" as="geometry" />
        </mxCell>
        <mxCell id="Ixk-3HSl-CnPWXnMhM3V-22" value="产出清洗数据结果" style="rounded=1;whiteSpace=wrap;html=1;" vertex="1" parent="1">
          <mxGeometry x="280" y="1320" width="120" height="60" as="geometry" />
        </mxCell>
        <mxCell id="Ixk-3HSl-CnPWXnMhM3V-23" value="" style="html=1;shadow=0;dashed=0;align=center;verticalAlign=middle;shape=mxgraph.arrows2.arrow;dy=0.6;dx=40;direction=south;notch=0;" vertex="1" parent="1">
          <mxGeometry x="305" y="1240" width="70" height="70" as="geometry" />
        </mxCell>
      </root>
    </mxGraphModel>
  </diagram>
</mxfile>
